<?xml version="1.0" encoding="UTF-8"?>
<svg xmlns="http://www.w3.org/2000/svg" xmlns:xlink="http://www.w3.org/1999/xlink" width="206.752pt" height="237.133pt" viewBox="0 0 206.752 237.133" version="1.1">
<defs>
<clipPath id="clip1">
  <path d="M 146 155 L 206.753906 155 L 206.753906 196 L 146 196 Z M 146 155 "/>
</clipPath>
<clipPath id="clip2">
  <path d="M 171 169 L 206.753906 169 L 206.753906 224 L 171 224 Z M 171 169 "/>
</clipPath>
<clipPath id="clip3">
  <path d="M 146 127 L 206.753906 127 L 206.753906 167 L 146 167 Z M 146 127 "/>
</clipPath>
<clipPath id="clip4">
  <path d="M 171 141 L 206.753906 141 L 206.753906 196 L 171 196 Z M 171 141 "/>
</clipPath>
<clipPath id="clip5">
  <path d="M 122 183 L 159 183 L 159 237.132812 L 122 237.132812 Z M 122 183 "/>
</clipPath>
<clipPath id="clip6">
  <path d="M 146 183 L 183 183 L 183 237.132812 L 146 237.132812 Z M 146 183 "/>
</clipPath>
</defs>
<g id="surface1">
<path style="fill-rule:nonzero;fill:rgb(100%,94.898987%,0%);fill-opacity:1;stroke-width:0.3985;stroke-linecap:butt;stroke-linejoin:miter;stroke:rgb(0%,0%,0%);stroke-opacity:1;stroke-miterlimit:10;" d="M -0.001 -0.0010625 L 24.549781 14.174719 L -0.001 28.346594 L -24.547875 14.174719 L -0.001 -0.0010625 " transform="matrix(1,0,0,-1,103.376,146.913)"/>
<path style="fill-rule:nonzero;fill:rgb(100%,0%,0%);fill-opacity:1;stroke-width:0.3985;stroke-linecap:butt;stroke-linejoin:miter;stroke:rgb(0%,0%,0%);stroke-opacity:1;stroke-miterlimit:10;" d="M -0.001 -0.0010625 L -0.001 -28.348719 L -24.547875 -14.172938 L -24.547875 14.174719 L -0.001 -0.0010625 " transform="matrix(1,0,0,-1,103.376,146.913)"/>
<path style="fill-rule:nonzero;fill:rgb(0%,0%,100%);fill-opacity:1;stroke-width:0.3985;stroke-linecap:butt;stroke-linejoin:miter;stroke:rgb(0%,0%,0%);stroke-opacity:1;stroke-miterlimit:10;" d="M -0.001 -0.0010625 L 24.549781 14.174719 L 24.549781 -14.172938 L -0.001 -28.348719 L -0.001 -0.0010625 " transform="matrix(1,0,0,-1,103.376,146.913)"/>
<path style="fill-rule:nonzero;fill:rgb(100%,94.898987%,0%);fill-opacity:1;stroke-width:0.3985;stroke-linecap:butt;stroke-linejoin:miter;stroke:rgb(0%,0%,0%);stroke-opacity:1;stroke-miterlimit:10;" d="M -0.001 28.346594 L 24.549781 42.518469 L -0.001 56.69425 L -24.547875 42.518469 L -0.001 28.346594 " transform="matrix(1,0,0,-1,103.376,146.913)"/>
<path style="fill-rule:nonzero;fill:rgb(100%,0%,0%);fill-opacity:1;stroke-width:0.3985;stroke-linecap:butt;stroke-linejoin:miter;stroke:rgb(0%,0%,0%);stroke-opacity:1;stroke-miterlimit:10;" d="M -0.001 28.346594 L -0.001 -0.0010625 L -24.547875 14.174719 L -24.547875 42.518469 L -0.001 28.346594 " transform="matrix(1,0,0,-1,103.376,146.913)"/>
<path style="fill-rule:nonzero;fill:rgb(0%,0%,100%);fill-opacity:1;stroke-width:0.3985;stroke-linecap:butt;stroke-linejoin:miter;stroke:rgb(0%,0%,0%);stroke-opacity:1;stroke-miterlimit:10;" d="M -0.001 28.346594 L 24.549781 42.518469 L 24.549781 14.174719 L -0.001 -0.0010625 L -0.001 28.346594 " transform="matrix(1,0,0,-1,103.376,146.913)"/>
<path style="fill-rule:nonzero;fill:rgb(100%,94.898987%,0%);fill-opacity:1;stroke-width:0.3985;stroke-linecap:butt;stroke-linejoin:miter;stroke:rgb(0%,0%,0%);stroke-opacity:1;stroke-miterlimit:10;" d="M -0.001 56.69425 L 24.549781 70.866125 L -0.001 85.041906 L -24.547875 70.866125 L -0.001 56.69425 " transform="matrix(1,0,0,-1,103.376,146.913)"/>
<path style="fill-rule:nonzero;fill:rgb(100%,0%,0%);fill-opacity:1;stroke-width:0.3985;stroke-linecap:butt;stroke-linejoin:miter;stroke:rgb(0%,0%,0%);stroke-opacity:1;stroke-miterlimit:10;" d="M -0.001 56.69425 L -0.001 28.346594 L -24.547875 42.518469 L -24.547875 70.866125 L -0.001 56.69425 " transform="matrix(1,0,0,-1,103.376,146.913)"/>
<path style="fill-rule:nonzero;fill:rgb(0%,0%,100%);fill-opacity:1;stroke-width:0.3985;stroke-linecap:butt;stroke-linejoin:miter;stroke:rgb(0%,0%,0%);stroke-opacity:1;stroke-miterlimit:10;" d="M -0.001 56.69425 L 24.549781 70.866125 L 24.549781 42.518469 L -0.001 28.346594 L -0.001 56.69425 " transform="matrix(1,0,0,-1,103.376,146.913)"/>
<path style="fill-rule:nonzero;fill:rgb(100%,94.898987%,0%);fill-opacity:1;stroke-width:0.3985;stroke-linecap:butt;stroke-linejoin:miter;stroke:rgb(0%,0%,0%);stroke-opacity:1;stroke-miterlimit:10;" d="M -0.001 85.041906 L 24.549781 99.213781 L -0.001 113.385656 L -24.547875 99.213781 L -0.001 85.041906 " transform="matrix(1,0,0,-1,103.376,146.913)"/>
<path style="fill-rule:nonzero;fill:rgb(100%,0%,0%);fill-opacity:1;stroke-width:0.3985;stroke-linecap:butt;stroke-linejoin:miter;stroke:rgb(0%,0%,0%);stroke-opacity:1;stroke-miterlimit:10;" d="M -0.001 85.041906 L -0.001 56.69425 L -24.547875 70.866125 L -24.547875 99.213781 L -0.001 85.041906 " transform="matrix(1,0,0,-1,103.376,146.913)"/>
<path style="fill-rule:nonzero;fill:rgb(0%,0%,100%);fill-opacity:1;stroke-width:0.3985;stroke-linecap:butt;stroke-linejoin:miter;stroke:rgb(0%,0%,0%);stroke-opacity:1;stroke-miterlimit:10;" d="M -0.001 85.041906 L 24.549781 99.213781 L 24.549781 70.866125 L -0.001 56.69425 L -0.001 85.041906 " transform="matrix(1,0,0,-1,103.376,146.913)"/>
<path style="fill-rule:nonzero;fill:rgb(100%,94.898987%,0%);fill-opacity:1;stroke-width:0.3985;stroke-linecap:butt;stroke-linejoin:miter;stroke:rgb(0%,0%,0%);stroke-opacity:1;stroke-miterlimit:10;" d="M -0.001 113.385656 L 24.549781 127.561437 L -0.001 141.733312 L -24.547875 127.561437 L -0.001 113.385656 " transform="matrix(1,0,0,-1,103.376,146.913)"/>
<path style="fill-rule:nonzero;fill:rgb(100%,0%,0%);fill-opacity:1;stroke-width:0.3985;stroke-linecap:butt;stroke-linejoin:miter;stroke:rgb(0%,0%,0%);stroke-opacity:1;stroke-miterlimit:10;" d="M -0.001 113.385656 L -0.001 85.041906 L -24.547875 99.213781 L -24.547875 127.561437 L -0.001 113.385656 " transform="matrix(1,0,0,-1,103.376,146.913)"/>
<path style="fill-rule:nonzero;fill:rgb(0%,0%,100%);fill-opacity:1;stroke-width:0.3985;stroke-linecap:butt;stroke-linejoin:miter;stroke:rgb(0%,0%,0%);stroke-opacity:1;stroke-miterlimit:10;" d="M -0.001 113.385656 L 24.549781 127.561437 L 24.549781 99.213781 L -0.001 85.041906 L -0.001 113.385656 " transform="matrix(1,0,0,-1,103.376,146.913)"/>
<path style="fill-rule:nonzero;fill:rgb(100%,94.898987%,0%);fill-opacity:1;stroke-width:0.3985;stroke-linecap:butt;stroke-linejoin:miter;stroke:rgb(0%,0%,0%);stroke-opacity:1;stroke-miterlimit:10;" d="M 24.549781 -14.172938 L 49.096656 -0.0010625 L 24.549781 14.174719 L -0.001 -0.0010625 L 24.549781 -14.172938 " transform="matrix(1,0,0,-1,103.376,146.913)"/>
<path style="fill-rule:nonzero;fill:rgb(100%,0%,0%);fill-opacity:1;stroke-width:0.3985;stroke-linecap:butt;stroke-linejoin:miter;stroke:rgb(0%,0%,0%);stroke-opacity:1;stroke-miterlimit:10;" d="M 24.549781 -14.172938 L 24.549781 -42.520594 L -0.001 -28.348719 L -0.001 -0.0010625 L 24.549781 -14.172938 " transform="matrix(1,0,0,-1,103.376,146.913)"/>
<path style="fill-rule:nonzero;fill:rgb(0%,0%,100%);fill-opacity:1;stroke-width:0.3985;stroke-linecap:butt;stroke-linejoin:miter;stroke:rgb(0%,0%,0%);stroke-opacity:1;stroke-miterlimit:10;" d="M 24.549781 -14.172938 L 49.096656 -0.0010625 L 49.096656 -28.348719 L 24.549781 -42.520594 L 24.549781 -14.172938 " transform="matrix(1,0,0,-1,103.376,146.913)"/>
<path style="fill-rule:nonzero;fill:rgb(100%,94.898987%,0%);fill-opacity:1;stroke-width:0.3985;stroke-linecap:butt;stroke-linejoin:miter;stroke:rgb(0%,0%,0%);stroke-opacity:1;stroke-miterlimit:10;" d="M 24.549781 14.174719 L 49.096656 28.346594 L 24.549781 42.518469 L -0.001 28.346594 L 24.549781 14.174719 " transform="matrix(1,0,0,-1,103.376,146.913)"/>
<path style="fill-rule:nonzero;fill:rgb(100%,0%,0%);fill-opacity:1;stroke-width:0.3985;stroke-linecap:butt;stroke-linejoin:miter;stroke:rgb(0%,0%,0%);stroke-opacity:1;stroke-miterlimit:10;" d="M 24.549781 14.174719 L 24.549781 -14.172938 L -0.001 -0.0010625 L -0.001 28.346594 L 24.549781 14.174719 " transform="matrix(1,0,0,-1,103.376,146.913)"/>
<path style="fill-rule:nonzero;fill:rgb(0%,0%,100%);fill-opacity:1;stroke-width:0.3985;stroke-linecap:butt;stroke-linejoin:miter;stroke:rgb(0%,0%,0%);stroke-opacity:1;stroke-miterlimit:10;" d="M 24.549781 14.174719 L 49.096656 28.346594 L 49.096656 -0.0010625 L 24.549781 -14.172938 L 24.549781 14.174719 " transform="matrix(1,0,0,-1,103.376,146.913)"/>
<path style="fill-rule:nonzero;fill:rgb(100%,94.898987%,0%);fill-opacity:1;stroke-width:0.3985;stroke-linecap:butt;stroke-linejoin:miter;stroke:rgb(0%,0%,0%);stroke-opacity:1;stroke-miterlimit:10;" d="M 24.549781 42.518469 L 49.096656 56.69425 L 24.549781 70.866125 L -0.001 56.69425 L 24.549781 42.518469 " transform="matrix(1,0,0,-1,103.376,146.913)"/>
<path style="fill-rule:nonzero;fill:rgb(100%,0%,0%);fill-opacity:1;stroke-width:0.3985;stroke-linecap:butt;stroke-linejoin:miter;stroke:rgb(0%,0%,0%);stroke-opacity:1;stroke-miterlimit:10;" d="M 24.549781 42.518469 L 24.549781 14.174719 L -0.001 28.346594 L -0.001 56.69425 L 24.549781 42.518469 " transform="matrix(1,0,0,-1,103.376,146.913)"/>
<path style="fill-rule:nonzero;fill:rgb(0%,0%,100%);fill-opacity:1;stroke-width:0.3985;stroke-linecap:butt;stroke-linejoin:miter;stroke:rgb(0%,0%,0%);stroke-opacity:1;stroke-miterlimit:10;" d="M 24.549781 42.518469 L 49.096656 56.69425 L 49.096656 28.346594 L 24.549781 14.174719 L 24.549781 42.518469 " transform="matrix(1,0,0,-1,103.376,146.913)"/>
<path style="fill-rule:nonzero;fill:rgb(100%,94.898987%,0%);fill-opacity:1;stroke-width:0.3985;stroke-linecap:butt;stroke-linejoin:miter;stroke:rgb(0%,0%,0%);stroke-opacity:1;stroke-miterlimit:10;" d="M 49.096656 -28.348719 L 73.647438 -14.172938 L 49.096656 -0.0010625 L 24.549781 -14.172938 L 49.096656 -28.348719 " transform="matrix(1,0,0,-1,103.376,146.913)"/>
<path style="fill-rule:nonzero;fill:rgb(100%,0%,0%);fill-opacity:1;stroke-width:0.3985;stroke-linecap:butt;stroke-linejoin:miter;stroke:rgb(0%,0%,0%);stroke-opacity:1;stroke-miterlimit:10;" d="M 49.096656 -28.348719 L 49.096656 -56.692469 L 24.549781 -42.520594 L 24.549781 -14.172938 L 49.096656 -28.348719 " transform="matrix(1,0,0,-1,103.376,146.913)"/>
<path style="fill-rule:nonzero;fill:rgb(0%,0%,100%);fill-opacity:1;stroke-width:0.3985;stroke-linecap:butt;stroke-linejoin:miter;stroke:rgb(0%,0%,0%);stroke-opacity:1;stroke-miterlimit:10;" d="M 49.096656 -28.348719 L 73.647438 -14.172938 L 73.647438 -42.520594 L 49.096656 -56.692469 L 49.096656 -28.348719 " transform="matrix(1,0,0,-1,103.376,146.913)"/>
<path style="fill-rule:nonzero;fill:rgb(100%,94.898987%,0%);fill-opacity:1;stroke-width:0.3985;stroke-linecap:butt;stroke-linejoin:miter;stroke:rgb(0%,0%,0%);stroke-opacity:1;stroke-miterlimit:10;" d="M 49.096656 -0.0010625 L 73.647438 14.174719 L 49.096656 28.346594 L 24.549781 14.174719 L 49.096656 -0.0010625 " transform="matrix(1,0,0,-1,103.376,146.913)"/>
<path style="fill-rule:nonzero;fill:rgb(100%,0%,0%);fill-opacity:1;stroke-width:0.3985;stroke-linecap:butt;stroke-linejoin:miter;stroke:rgb(0%,0%,0%);stroke-opacity:1;stroke-miterlimit:10;" d="M 49.096656 -0.0010625 L 49.096656 -28.348719 L 24.549781 -14.172938 L 24.549781 14.174719 L 49.096656 -0.0010625 " transform="matrix(1,0,0,-1,103.376,146.913)"/>
<path style="fill-rule:nonzero;fill:rgb(0%,0%,100%);fill-opacity:1;stroke-width:0.3985;stroke-linecap:butt;stroke-linejoin:miter;stroke:rgb(0%,0%,0%);stroke-opacity:1;stroke-miterlimit:10;" d="M 49.096656 -0.0010625 L 73.647438 14.174719 L 73.647438 -14.172938 L 49.096656 -28.348719 L 49.096656 -0.0010625 " transform="matrix(1,0,0,-1,103.376,146.913)"/>
<path style=" stroke:none;fill-rule:nonzero;fill:rgb(100%,94.898987%,0%);fill-opacity:1;" d="M 177.023438 189.433594 L 201.574219 175.261719 L 177.023438 161.085938 L 152.472656 175.261719 L 177.023438 189.433594 "/>
<g clip-path="url(#clip1)" clip-rule="nonzero">
<path style="fill:none;stroke-width:0.3985;stroke-linecap:butt;stroke-linejoin:miter;stroke:rgb(0%,0%,0%);stroke-opacity:1;stroke-miterlimit:10;" d="M 73.647438 -42.520594 L 98.198219 -28.348719 L 73.647438 -14.172938 L 49.096656 -28.348719 L 73.647438 -42.520594 " transform="matrix(1,0,0,-1,103.376,146.913)"/>
</g>
<path style="fill-rule:nonzero;fill:rgb(100%,0%,0%);fill-opacity:1;stroke-width:0.3985;stroke-linecap:butt;stroke-linejoin:miter;stroke:rgb(0%,0%,0%);stroke-opacity:1;stroke-miterlimit:10;" d="M 73.647438 -42.520594 L 73.647438 -70.86825 L 49.096656 -56.692469 L 49.096656 -28.348719 L 73.647438 -42.520594 " transform="matrix(1,0,0,-1,103.376,146.913)"/>
<path style=" stroke:none;fill-rule:nonzero;fill:rgb(0%,0%,100%);fill-opacity:1;" d="M 177.023438 189.433594 L 201.574219 175.261719 L 201.574219 203.605469 L 177.023438 217.78125 L 177.023438 189.433594 "/>
<g clip-path="url(#clip2)" clip-rule="nonzero">
<path style="fill:none;stroke-width:0.3985;stroke-linecap:butt;stroke-linejoin:miter;stroke:rgb(0%,0%,0%);stroke-opacity:1;stroke-miterlimit:10;" d="M 73.647438 -42.520594 L 98.198219 -28.348719 L 98.198219 -56.692469 L 73.647438 -70.86825 L 73.647438 -42.520594 " transform="matrix(1,0,0,-1,103.376,146.913)"/>
</g>
<path style=" stroke:none;fill-rule:nonzero;fill:rgb(100%,94.898987%,0%);fill-opacity:1;" d="M 177.023438 161.085938 L 201.574219 146.914062 L 177.023438 132.738281 L 152.472656 146.914062 L 177.023438 161.085938 "/>
<g clip-path="url(#clip3)" clip-rule="nonzero">
<path style="fill:none;stroke-width:0.3985;stroke-linecap:butt;stroke-linejoin:miter;stroke:rgb(0%,0%,0%);stroke-opacity:1;stroke-miterlimit:10;" d="M 73.647438 -14.172938 L 98.198219 -0.0010625 L 73.647438 14.174719 L 49.096656 -0.0010625 L 73.647438 -14.172938 " transform="matrix(1,0,0,-1,103.376,146.913)"/>
</g>
<path style="fill-rule:nonzero;fill:rgb(100%,0%,0%);fill-opacity:1;stroke-width:0.3985;stroke-linecap:butt;stroke-linejoin:miter;stroke:rgb(0%,0%,0%);stroke-opacity:1;stroke-miterlimit:10;" d="M 73.647438 -14.172938 L 73.647438 -42.520594 L 49.096656 -28.348719 L 49.096656 -0.0010625 L 73.647438 -14.172938 " transform="matrix(1,0,0,-1,103.376,146.913)"/>
<path style=" stroke:none;fill-rule:nonzero;fill:rgb(0%,0%,100%);fill-opacity:1;" d="M 177.023438 161.085938 L 201.574219 146.914062 L 201.574219 175.261719 L 177.023438 189.433594 L 177.023438 161.085938 "/>
<g clip-path="url(#clip4)" clip-rule="nonzero">
<path style="fill:none;stroke-width:0.3985;stroke-linecap:butt;stroke-linejoin:miter;stroke:rgb(0%,0%,0%);stroke-opacity:1;stroke-miterlimit:10;" d="M 73.647438 -14.172938 L 98.198219 -0.0010625 L 98.198219 -28.348719 L 73.647438 -42.520594 L 73.647438 -14.172938 " transform="matrix(1,0,0,-1,103.376,146.913)"/>
</g>
<path style="fill-rule:nonzero;fill:rgb(100%,94.898987%,0%);fill-opacity:1;stroke-width:0.3985;stroke-linecap:butt;stroke-linejoin:miter;stroke:rgb(0%,0%,0%);stroke-opacity:1;stroke-miterlimit:10;" d="M -24.547875 -14.172938 L -0.001 -0.0010625 L -24.547875 14.174719 L -49.098656 -0.0010625 L -24.547875 -14.172938 " transform="matrix(1,0,0,-1,103.376,146.913)"/>
<path style="fill-rule:nonzero;fill:rgb(100%,0%,0%);fill-opacity:1;stroke-width:0.3985;stroke-linecap:butt;stroke-linejoin:miter;stroke:rgb(0%,0%,0%);stroke-opacity:1;stroke-miterlimit:10;" d="M -24.547875 -14.172938 L -24.547875 -42.520594 L -49.098656 -28.348719 L -49.098656 -0.0010625 L -24.547875 -14.172938 " transform="matrix(1,0,0,-1,103.376,146.913)"/>
<path style="fill-rule:nonzero;fill:rgb(0%,0%,100%);fill-opacity:1;stroke-width:0.3985;stroke-linecap:butt;stroke-linejoin:miter;stroke:rgb(0%,0%,0%);stroke-opacity:1;stroke-miterlimit:10;" d="M -24.547875 -14.172938 L -0.001 -0.0010625 L -0.001 -28.348719 L -24.547875 -42.520594 L -24.547875 -14.172938 " transform="matrix(1,0,0,-1,103.376,146.913)"/>
<path style="fill-rule:nonzero;fill:rgb(100%,94.898987%,0%);fill-opacity:1;stroke-width:0.3985;stroke-linecap:butt;stroke-linejoin:miter;stroke:rgb(0%,0%,0%);stroke-opacity:1;stroke-miterlimit:10;" d="M -24.547875 14.174719 L -0.001 28.346594 L -24.547875 42.518469 L -49.098656 28.346594 L -24.547875 14.174719 " transform="matrix(1,0,0,-1,103.376,146.913)"/>
<path style="fill-rule:nonzero;fill:rgb(100%,0%,0%);fill-opacity:1;stroke-width:0.3985;stroke-linecap:butt;stroke-linejoin:miter;stroke:rgb(0%,0%,0%);stroke-opacity:1;stroke-miterlimit:10;" d="M -24.547875 14.174719 L -24.547875 -14.172938 L -49.098656 -0.0010625 L -49.098656 28.346594 L -24.547875 14.174719 " transform="matrix(1,0,0,-1,103.376,146.913)"/>
<path style="fill-rule:nonzero;fill:rgb(0%,0%,100%);fill-opacity:1;stroke-width:0.3985;stroke-linecap:butt;stroke-linejoin:miter;stroke:rgb(0%,0%,0%);stroke-opacity:1;stroke-miterlimit:10;" d="M -24.547875 14.174719 L -0.001 28.346594 L -0.001 -0.0010625 L -24.547875 -14.172938 L -24.547875 14.174719 " transform="matrix(1,0,0,-1,103.376,146.913)"/>
<path style="fill-rule:nonzero;fill:rgb(100%,94.898987%,0%);fill-opacity:1;stroke-width:0.3985;stroke-linecap:butt;stroke-linejoin:miter;stroke:rgb(0%,0%,0%);stroke-opacity:1;stroke-miterlimit:10;" d="M -24.547875 42.518469 L -0.001 56.69425 L -24.547875 70.866125 L -49.098656 56.69425 L -24.547875 42.518469 " transform="matrix(1,0,0,-1,103.376,146.913)"/>
<path style="fill-rule:nonzero;fill:rgb(100%,0%,0%);fill-opacity:1;stroke-width:0.3985;stroke-linecap:butt;stroke-linejoin:miter;stroke:rgb(0%,0%,0%);stroke-opacity:1;stroke-miterlimit:10;" d="M -24.547875 42.518469 L -24.547875 14.174719 L -49.098656 28.346594 L -49.098656 56.69425 L -24.547875 42.518469 " transform="matrix(1,0,0,-1,103.376,146.913)"/>
<path style="fill-rule:nonzero;fill:rgb(0%,0%,100%);fill-opacity:1;stroke-width:0.3985;stroke-linecap:butt;stroke-linejoin:miter;stroke:rgb(0%,0%,0%);stroke-opacity:1;stroke-miterlimit:10;" d="M -24.547875 42.518469 L -0.001 56.69425 L -0.001 28.346594 L -24.547875 14.174719 L -24.547875 42.518469 " transform="matrix(1,0,0,-1,103.376,146.913)"/>
<path style="fill-rule:nonzero;fill:rgb(100%,94.898987%,0%);fill-opacity:1;stroke-width:0.3985;stroke-linecap:butt;stroke-linejoin:miter;stroke:rgb(0%,0%,0%);stroke-opacity:1;stroke-miterlimit:10;" d="M -24.547875 70.866125 L -0.001 85.041906 L -24.547875 99.213781 L -49.098656 85.041906 L -24.547875 70.866125 " transform="matrix(1,0,0,-1,103.376,146.913)"/>
<path style="fill-rule:nonzero;fill:rgb(100%,0%,0%);fill-opacity:1;stroke-width:0.3985;stroke-linecap:butt;stroke-linejoin:miter;stroke:rgb(0%,0%,0%);stroke-opacity:1;stroke-miterlimit:10;" d="M -24.547875 70.866125 L -24.547875 42.518469 L -49.098656 56.69425 L -49.098656 85.041906 L -24.547875 70.866125 " transform="matrix(1,0,0,-1,103.376,146.913)"/>
<path style="fill-rule:nonzero;fill:rgb(0%,0%,100%);fill-opacity:1;stroke-width:0.3985;stroke-linecap:butt;stroke-linejoin:miter;stroke:rgb(0%,0%,0%);stroke-opacity:1;stroke-miterlimit:10;" d="M -24.547875 70.866125 L -0.001 85.041906 L -0.001 56.69425 L -24.547875 42.518469 L -24.547875 70.866125 " transform="matrix(1,0,0,-1,103.376,146.913)"/>
<path style="fill-rule:nonzero;fill:rgb(100%,94.898987%,0%);fill-opacity:1;stroke-width:0.3985;stroke-linecap:butt;stroke-linejoin:miter;stroke:rgb(0%,0%,0%);stroke-opacity:1;stroke-miterlimit:10;" d="M -0.001 -28.348719 L 24.549781 -14.172938 L -0.001 -0.0010625 L -24.547875 -14.172938 L -0.001 -28.348719 " transform="matrix(1,0,0,-1,103.376,146.913)"/>
<path style="fill-rule:nonzero;fill:rgb(100%,0%,0%);fill-opacity:1;stroke-width:0.3985;stroke-linecap:butt;stroke-linejoin:miter;stroke:rgb(0%,0%,0%);stroke-opacity:1;stroke-miterlimit:10;" d="M -0.001 -28.348719 L -0.001 -56.692469 L -24.547875 -42.520594 L -24.547875 -14.172938 L -0.001 -28.348719 " transform="matrix(1,0,0,-1,103.376,146.913)"/>
<path style="fill-rule:nonzero;fill:rgb(0%,0%,100%);fill-opacity:1;stroke-width:0.3985;stroke-linecap:butt;stroke-linejoin:miter;stroke:rgb(0%,0%,0%);stroke-opacity:1;stroke-miterlimit:10;" d="M -0.001 -28.348719 L 24.549781 -14.172938 L 24.549781 -42.520594 L -0.001 -56.692469 L -0.001 -28.348719 " transform="matrix(1,0,0,-1,103.376,146.913)"/>
<path style="fill-rule:nonzero;fill:rgb(100%,94.898987%,0%);fill-opacity:1;stroke-width:0.3985;stroke-linecap:butt;stroke-linejoin:miter;stroke:rgb(0%,0%,0%);stroke-opacity:1;stroke-miterlimit:10;" d="M -0.001 -0.0010625 L 24.549781 14.174719 L -0.001 28.346594 L -24.547875 14.174719 L -0.001 -0.0010625 " transform="matrix(1,0,0,-1,103.376,146.913)"/>
<path style="fill-rule:nonzero;fill:rgb(100%,0%,0%);fill-opacity:1;stroke-width:0.3985;stroke-linecap:butt;stroke-linejoin:miter;stroke:rgb(0%,0%,0%);stroke-opacity:1;stroke-miterlimit:10;" d="M -0.001 -0.0010625 L -0.001 -28.348719 L -24.547875 -14.172938 L -24.547875 14.174719 L -0.001 -0.0010625 " transform="matrix(1,0,0,-1,103.376,146.913)"/>
<path style="fill-rule:nonzero;fill:rgb(0%,0%,100%);fill-opacity:1;stroke-width:0.3985;stroke-linecap:butt;stroke-linejoin:miter;stroke:rgb(0%,0%,0%);stroke-opacity:1;stroke-miterlimit:10;" d="M -0.001 -0.0010625 L 24.549781 14.174719 L 24.549781 -14.172938 L -0.001 -28.348719 L -0.001 -0.0010625 " transform="matrix(1,0,0,-1,103.376,146.913)"/>
<path style="fill-rule:nonzero;fill:rgb(100%,94.898987%,0%);fill-opacity:1;stroke-width:0.3985;stroke-linecap:butt;stroke-linejoin:miter;stroke:rgb(0%,0%,0%);stroke-opacity:1;stroke-miterlimit:10;" d="M 24.549781 -42.520594 L 49.096656 -28.348719 L 24.549781 -14.172938 L -0.001 -28.348719 L 24.549781 -42.520594 " transform="matrix(1,0,0,-1,103.376,146.913)"/>
<path style="fill-rule:nonzero;fill:rgb(100%,0%,0%);fill-opacity:1;stroke-width:0.3985;stroke-linecap:butt;stroke-linejoin:miter;stroke:rgb(0%,0%,0%);stroke-opacity:1;stroke-miterlimit:10;" d="M 24.549781 -42.520594 L 24.549781 -70.86825 L -0.001 -56.692469 L -0.001 -28.348719 L 24.549781 -42.520594 " transform="matrix(1,0,0,-1,103.376,146.913)"/>
<path style="fill-rule:nonzero;fill:rgb(0%,0%,100%);fill-opacity:1;stroke-width:0.3985;stroke-linecap:butt;stroke-linejoin:miter;stroke:rgb(0%,0%,0%);stroke-opacity:1;stroke-miterlimit:10;" d="M 24.549781 -42.520594 L 49.096656 -28.348719 L 49.096656 -56.692469 L 24.549781 -70.86825 L 24.549781 -42.520594 " transform="matrix(1,0,0,-1,103.376,146.913)"/>
<path style="fill-rule:nonzero;fill:rgb(100%,94.898987%,0%);fill-opacity:1;stroke-width:0.3985;stroke-linecap:butt;stroke-linejoin:miter;stroke:rgb(0%,0%,0%);stroke-opacity:1;stroke-miterlimit:10;" d="M 24.549781 -14.172938 L 49.096656 -0.0010625 L 24.549781 14.174719 L -0.001 -0.0010625 L 24.549781 -14.172938 " transform="matrix(1,0,0,-1,103.376,146.913)"/>
<path style="fill-rule:nonzero;fill:rgb(100%,0%,0%);fill-opacity:1;stroke-width:0.3985;stroke-linecap:butt;stroke-linejoin:miter;stroke:rgb(0%,0%,0%);stroke-opacity:1;stroke-miterlimit:10;" d="M 24.549781 -14.172938 L 24.549781 -42.520594 L -0.001 -28.348719 L -0.001 -0.0010625 L 24.549781 -14.172938 " transform="matrix(1,0,0,-1,103.376,146.913)"/>
<path style="fill-rule:nonzero;fill:rgb(0%,0%,100%);fill-opacity:1;stroke-width:0.3985;stroke-linecap:butt;stroke-linejoin:miter;stroke:rgb(0%,0%,0%);stroke-opacity:1;stroke-miterlimit:10;" d="M 24.549781 -14.172938 L 49.096656 -0.0010625 L 49.096656 -28.348719 L 24.549781 -42.520594 L 24.549781 -14.172938 " transform="matrix(1,0,0,-1,103.376,146.913)"/>
<path style="fill-rule:nonzero;fill:rgb(100%,94.898987%,0%);fill-opacity:1;stroke-width:0.3985;stroke-linecap:butt;stroke-linejoin:miter;stroke:rgb(0%,0%,0%);stroke-opacity:1;stroke-miterlimit:10;" d="M 49.096656 -56.692469 L 73.647438 -42.520594 L 49.096656 -28.348719 L 24.549781 -42.520594 L 49.096656 -56.692469 " transform="matrix(1,0,0,-1,103.376,146.913)"/>
<path style=" stroke:none;fill-rule:nonzero;fill:rgb(100%,0%,0%);fill-opacity:1;" d="M 152.472656 203.605469 L 152.472656 231.953125 L 127.925781 217.78125 L 127.925781 189.433594 L 152.472656 203.605469 "/>
<g clip-path="url(#clip5)" clip-rule="nonzero">
<path style="fill:none;stroke-width:0.3985;stroke-linecap:butt;stroke-linejoin:miter;stroke:rgb(0%,0%,0%);stroke-opacity:1;stroke-miterlimit:10;" d="M 49.096656 -56.692469 L 49.096656 -85.040125 L 24.549781 -70.86825 L 24.549781 -42.520594 L 49.096656 -56.692469 " transform="matrix(1,0,0,-1,103.376,146.913)"/>
</g>
<path style=" stroke:none;fill-rule:nonzero;fill:rgb(0%,0%,100%);fill-opacity:1;" d="M 152.472656 203.605469 L 177.023438 189.433594 L 177.023438 217.78125 L 152.472656 231.953125 L 152.472656 203.605469 "/>
<g clip-path="url(#clip6)" clip-rule="nonzero">
<path style="fill:none;stroke-width:0.3985;stroke-linecap:butt;stroke-linejoin:miter;stroke:rgb(0%,0%,0%);stroke-opacity:1;stroke-miterlimit:10;" d="M 49.096656 -56.692469 L 73.647438 -42.520594 L 73.647438 -70.86825 L 49.096656 -85.040125 L 49.096656 -56.692469 " transform="matrix(1,0,0,-1,103.376,146.913)"/>
</g>
<path style="fill-rule:nonzero;fill:rgb(100%,94.898987%,0%);fill-opacity:1;stroke-width:0.3985;stroke-linecap:butt;stroke-linejoin:miter;stroke:rgb(0%,0%,0%);stroke-opacity:1;stroke-miterlimit:10;" d="M -49.098656 -28.348719 L -24.547875 -14.172938 L -49.098656 -0.0010625 L -73.645531 -14.172938 L -49.098656 -28.348719 " transform="matrix(1,0,0,-1,103.376,146.913)"/>
<path style="fill-rule:nonzero;fill:rgb(100%,0%,0%);fill-opacity:1;stroke-width:0.3985;stroke-linecap:butt;stroke-linejoin:miter;stroke:rgb(0%,0%,0%);stroke-opacity:1;stroke-miterlimit:10;" d="M -49.098656 -28.348719 L -49.098656 -56.692469 L -73.645531 -42.520594 L -73.645531 -14.172938 L -49.098656 -28.348719 " transform="matrix(1,0,0,-1,103.376,146.913)"/>
<path style="fill-rule:nonzero;fill:rgb(0%,0%,100%);fill-opacity:1;stroke-width:0.3985;stroke-linecap:butt;stroke-linejoin:miter;stroke:rgb(0%,0%,0%);stroke-opacity:1;stroke-miterlimit:10;" d="M -49.098656 -28.348719 L -24.547875 -14.172938 L -24.547875 -42.520594 L -49.098656 -56.692469 L -49.098656 -28.348719 " transform="matrix(1,0,0,-1,103.376,146.913)"/>
<path style="fill-rule:nonzero;fill:rgb(100%,94.898987%,0%);fill-opacity:1;stroke-width:0.3985;stroke-linecap:butt;stroke-linejoin:miter;stroke:rgb(0%,0%,0%);stroke-opacity:1;stroke-miterlimit:10;" d="M -49.098656 -0.0010625 L -24.547875 14.174719 L -49.098656 28.346594 L -73.645531 14.174719 L -49.098656 -0.0010625 " transform="matrix(1,0,0,-1,103.376,146.913)"/>
<path style="fill-rule:nonzero;fill:rgb(100%,0%,0%);fill-opacity:1;stroke-width:0.3985;stroke-linecap:butt;stroke-linejoin:miter;stroke:rgb(0%,0%,0%);stroke-opacity:1;stroke-miterlimit:10;" d="M -49.098656 -0.0010625 L -49.098656 -28.348719 L -73.645531 -14.172938 L -73.645531 14.174719 L -49.098656 -0.0010625 " transform="matrix(1,0,0,-1,103.376,146.913)"/>
<path style="fill-rule:nonzero;fill:rgb(0%,0%,100%);fill-opacity:1;stroke-width:0.3985;stroke-linecap:butt;stroke-linejoin:miter;stroke:rgb(0%,0%,0%);stroke-opacity:1;stroke-miterlimit:10;" d="M -49.098656 -0.0010625 L -24.547875 14.174719 L -24.547875 -14.172938 L -49.098656 -28.348719 L -49.098656 -0.0010625 " transform="matrix(1,0,0,-1,103.376,146.913)"/>
<path style="fill-rule:nonzero;fill:rgb(100%,94.898987%,0%);fill-opacity:1;stroke-width:0.3985;stroke-linecap:butt;stroke-linejoin:miter;stroke:rgb(0%,0%,0%);stroke-opacity:1;stroke-miterlimit:10;" d="M -24.547875 -42.520594 L -0.001 -28.348719 L -24.547875 -14.172938 L -49.098656 -28.348719 L -24.547875 -42.520594 " transform="matrix(1,0,0,-1,103.376,146.913)"/>
<path style="fill-rule:nonzero;fill:rgb(100%,0%,0%);fill-opacity:1;stroke-width:0.3985;stroke-linecap:butt;stroke-linejoin:miter;stroke:rgb(0%,0%,0%);stroke-opacity:1;stroke-miterlimit:10;" d="M -24.547875 -42.520594 L -24.547875 -70.86825 L -49.098656 -56.692469 L -49.098656 -28.348719 L -24.547875 -42.520594 " transform="matrix(1,0,0,-1,103.376,146.913)"/>
<path style="fill-rule:nonzero;fill:rgb(0%,0%,100%);fill-opacity:1;stroke-width:0.3985;stroke-linecap:butt;stroke-linejoin:miter;stroke:rgb(0%,0%,0%);stroke-opacity:1;stroke-miterlimit:10;" d="M -24.547875 -42.520594 L -0.001 -28.348719 L -0.001 -56.692469 L -24.547875 -70.86825 L -24.547875 -42.520594 " transform="matrix(1,0,0,-1,103.376,146.913)"/>
<path style="fill-rule:nonzero;fill:rgb(100%,94.898987%,0%);fill-opacity:1;stroke-width:0.3985;stroke-linecap:butt;stroke-linejoin:miter;stroke:rgb(0%,0%,0%);stroke-opacity:1;stroke-miterlimit:10;" d="M -73.645531 -42.520594 L -49.098656 -28.348719 L -73.645531 -14.172938 L -98.196312 -28.348719 L -73.645531 -42.520594 " transform="matrix(1,0,0,-1,103.376,146.913)"/>
<path style="fill-rule:nonzero;fill:rgb(100%,0%,0%);fill-opacity:1;stroke-width:0.3985;stroke-linecap:butt;stroke-linejoin:miter;stroke:rgb(0%,0%,0%);stroke-opacity:1;stroke-miterlimit:10;" d="M -73.645531 -42.520594 L -73.645531 -70.86825 L -98.196312 -56.692469 L -98.196312 -28.348719 L -73.645531 -42.520594 " transform="matrix(1,0,0,-1,103.376,146.913)"/>
<path style="fill-rule:nonzero;fill:rgb(0%,0%,100%);fill-opacity:1;stroke-width:0.3985;stroke-linecap:butt;stroke-linejoin:miter;stroke:rgb(0%,0%,0%);stroke-opacity:1;stroke-miterlimit:10;" d="M -73.645531 -42.520594 L -49.098656 -28.348719 L -49.098656 -56.692469 L -73.645531 -70.86825 L -73.645531 -42.520594 " transform="matrix(1,0,0,-1,103.376,146.913)"/>
</g>
</svg>
